<svg id="Layer_1" data-name="Layer 1" xmlns="http://www.w3.org/2000/svg" viewBox="0 0 129.4304 74.50083">
  <defs>
    <style>
      .cls-1 {
        fill: #01040f;
      }
    </style>
  </defs>
  <title>logo1</title>
  <g>
    <path class="cls-1" d="M44.20223,75.49429v6.7h-8.7v-19.7h8.7v6.72h13.1v-6.72h8.73v19.7h-8.73v-6.7Z" transform="translate(-35.48222 -62.49349)"/>
    <path class="cls-1" d="M78.68223,62.49429h10.37l12,19.69h-9.85l-1.76-3.37h-11.17l-1.76,3.37h-9.82Zm2.12,11.55h6.13l-3.06-5.81Z" transform="translate(-35.48222 -62.49349)"/>
    <path class="cls-1" d="M123.20223,62.49429c4.6,0,8.51,3.37,8.44,7.45a6.52993,6.52993,0,0,1-1.34,4,8.11007,8.11007,0,0,1-3.53,2.7l4.87,5.52h-9.24l-4.2-4.8h-7.79v4.8h-8.71v-19.67Zm-12.83,5.76v3.36h10.63a1.99991,1.99991,0,0,0,1.35-.49,1.51,1.51,0,0,0,.56-1.18,1.8,1.8,0,0,0-1.90329-1.69041l-.00672.00041Z" transform="translate(-35.48222 -62.49349)"/>
    <path class="cls-1" d="M154.26222,62.49429c6.14-.07,10.7,4.47,10.65,9.84s-4.51,9.92-10.65,9.85h-19.89v-19.69Zm-1.63,6.24h-9.54v7.21h9.54a3.61,3.61,0,0,0,0-7.21Z" transform="translate(-35.48222 -62.49349)"/>
  </g>
  <g>
    <path class="cls-1" d="M67.20223,100.71429c-.57,6.65-7.44,8.64-15.8,8.64-8.71,0-15.9-2.15-15.86-9.61v-1.44c0-7.44,7.15-9.58,15.86-9.6,8.36,0,15.23,2,15.8,8.64h-9.3c-.85-1.94-3.43-2.39-6.53-2.39-3.7,0-6.84.6-6.79,3.84v.48c-.05,3.21,3.09,3.8,6.79,3.84,3.1,0,5.7-.47,6.53-2.4Z" transform="translate(-35.48222 -62.49349)"/>
    <path class="cls-1" d="M101.10223,98.30429v1.44c0,7.44-7.12,9.59-15.84,9.61s-15.89-2.17-15.86-9.61v-1.44c0-7.45,7.12-9.59,15.86-9.6S101.10223,90.86429,101.10223,98.30429Zm-9.06.47c.06-3.2-3.09-3.79-6.78-3.83s-6.86.63-6.81,3.83v.49c0,3.22,3.09,3.81,6.81,3.85s6.84-.63,6.78-3.85Z" transform="translate(-35.48222 -62.49349)"/>
    <path class="cls-1" d="M126.14223,89.19429c4.79,0,8.85,3.37,8.78,7.44a6.43,6.43,0,0,1-1.4,4,8.45,8.45,0,0,1-3.66,2.7l5.06,5.52h-9.64l-4.37-4.8h-8.08v4.8h-9.06v-19.66Zm-13.31,5.76v3.35h11a2.11,2.11,0,0,0,1.4-.48,1.5,1.5,0,0,0,.59-1.19,1.85,1.85,0,0,0-2-1.68Z" transform="translate(-35.48222 -62.49349)"/>
    <path class="cls-1" d="M137.72223,89.21429h27.17v5h-18.12v2.52h18.12v4.55h-18.12v2.52h18.12v5.06h-27.17Z" transform="translate(-35.48222 -62.49349)"/>
  </g>
  <g>
    <path class="cls-1" d="M56.20223,116.85429c4.43,0,8.19,3.37,8.13,7.44a7.87083,7.87083,0,0,1-8.13,7.44h-12.34v4.81h-8.38v-19.69Zm-2.09,9.11a1.85,1.85,0,0,0,1.28-.48,1.58,1.58,0,0,0,.54-1.19,1.51,1.51,0,0,0-.54-1.18,1.78,1.78,0,0,0-1.28-.5h-10.25v3.35Z" transform="translate(-35.48222 -62.49349)"/>
    <path class="cls-1" d="M87.56223,116.82429h8.39v10.58c0,7.44-6.62,9.58-14.68,9.59s-14.71-2.15-14.68-9.59v-10.58h8.38v10.09c0,3.24,2.86,3.8,6.3,3.84s6.34-.6,6.29-3.84Z" transform="translate(-35.48222 -62.49349)"/>
    <path class="cls-1" d="M120.70223,116.82429h8.39v19.67h-9.43l-11.55-12v12h-8.38v-19.67h11.53l9.44,10.43Z" transform="translate(-35.48222 -62.49349)"/>
    <path class="cls-1" d="M142.36223,129.79429v6.7h-8.38v-19.67h8.38v6.73h3.66l7.88-6.73h11l-11.15,9.85,11.16,9.82h-11l-7.88-6.72Z" transform="translate(-35.48222 -62.49349)"/>
  </g>
</svg>
